#!OML:ASF G:\ViconDB\ViconDB\414\test\team2\shane.ASF
:FULLY-SPECIFIED
:DEGREES
494
root 12.1542 16.7535 -19.4323 -195.579 -48.6523 -169.356
lowerback 6.76928 2.76775 5.74749
upperback 1.55925 4.03 0.784629
thorax -1.83301 1.95947 -2.72434
lowerneck -16.2541 -3.21514 -5.27839
upperneck 25.3695 -5.44965 6.26486
head 11.2338 -2.45228 2.34502
rclavicle 3.85021e-014 -3.18055e-014
rhumerus -22.5956 3.4775 -91.4203
rradius 38.2048
rwrist 35.6185
rhand -32.0472 -13.4001
rfingers 7.12502
rthumb -5.29434 -43.314
lclavicle 3.85021e-014 -3.18055e-014
lhumerus -45.2668 1.61428 80.5506
lradius 11.9621
lwrist -33.56
lhand -33.0441 6.92707
lfingers 7.12502
lthumb -6.25676 36.8147
rfemur 24.2943 -10.8168 12.6988
rtibia 26.29
rfoot -4.4745 3.02677
rtoes -30.8868
lfemur -10.5867 19.8472 -14.1204
ltibia 31.3088
lfoot -17.9523 -20.23
ltoes -4.04439
495
root 12.0086 16.7733 -19.4971 -195.388 -49.0692 -169.765
lowerback 6.85557 2.74577 5.50618
upperback 1.53042 3.99214 0.680963
thorax -1.92378 1.93994 -2.70098
lowerneck -16.5283 -3.11551 -5.26443
upperneck 25.6474 -5.26401 6.08077
head 11.3743 -2.38253 2.30305
rclavicle -2.12203e-014 3.97569e-015
rhumerus -23.3486 2.77923 -91.5125
rradius 37.7406
rwrist 35.4286
rhand -31.4868 -13.0051
rfingers 7.12502
rthumb -4.75319 -42.9317
lclavicle 3.85021e-014 -3.18055e-014
lhumerus -45.2668 1.61428 80.5506
lradius 11.9621
lwrist -33.56
lhand -33.0441 6.92707
lfingers 7.12502
lthumb -6.25676 36.8147
rfemur 22.5258 -10.5505 11.9689
rtibia 30.3653
rfoot -3.18988 4.10907
rtoes -29.4835
lfemur -9.59415 19.802 -14.4994
ltibia 30.7076
lfoot -17.8407 -20.7229
ltoes -3.13597
496
root 11.8737 16.7928 -19.5692 -195.657 -49.415 -169.783
lowerback 7.17795 2.71498 5.34579
upperback 1.51087 3.961 0.707413
thorax -2.13915 1.91789 -2.60208
lowerneck -16.4997 -3.02567 -5.27815
upperneck 25.6329 -5.04341 5.81079
head 11.34 -2.31454 2.23974
rclavicle 2.98177e-016 -7.95139e-015
rhumerus -24.2758 2.5185 -91.5991
rradius 37.3582
rwrist 35.2481
rhand -31.3004 -12.7597
rfingers 7.12502
rthumb -4.57324 -42.6903
lclavicle 2.98177e-016 -7.95139e-015
lhumerus -44.4472 -1.39457 84.0837
lradius 13.5916
lwrist -29.535
lhand -32.9299 7.13814
lfingers 7.12502
lthumb -6.14654 37.029
rfemur 20.9029 -10.1947 11.6925
rtibia 34.369
rfoot -1.8596 4.96529
rtoes -27.4945
lfemur -8.37058 19.755 -14.4587
ltibia 30.0019
lfoot -17.767 -21.0528
ltoes -2.5389
497
root 11.7401 16.8084 -19.6377 -195.651 -49.7871 -170.087
lowerback 7.45385 2.69213 4.9891
upperback 1.49695 3.92147 0.698505
thorax -2.33421 1.89455 -2.42677
lowerneck -16.5443 -2.86676 -5.19822
upperneck 25.6819 -4.75774 5.55125
head 11.3387 -2.20621 2.17389
rclavicle 3.89494e-014 -1.07344e-014
rhumerus -25.0307 2.13654 -91.6354
rradius 36.9212
rwrist 35.0304
rhand -30.7964 -12.7244
rfingers 7.12502
rthumb -4.08653 -42.6649
lclavicle 3.89494e-014 -1.07344e-014
lhumerus -44.1681 -2.95685 85.7762
lradius 14.4876
lwrist -28.0548
lhand -33.2546 7.04804
lfingers 7.12502
lthumb -6.46001 36.9295
rfemur 19.2039 -9.9153 11.1516
rtibia 38.2254
rfoot -0.37492 6.14336
rtoes -23.9601
lfemur -7.24255 19.8489 -14.6203
ltibia 29.333
lfoot -17.6344 -21.6783
ltoes -1.803
498
root 11.6119 16.8263 -19.7008 -195.681 -50.3471 -170.325
lowerback 7.76485 2.59959 4.6841
upperback 1.52609 3.78884 0.649574
thorax -2.50392 1.82582 -2.31329
lowerneck -16.7155 -2.71068 -5.14581
upperneck 25.6996 -4.47086 5.35213
head 11.3542 -2.08806 2.13415
rclavicle 4.3012e-014 -1.07344e-014
rhumerus -25.7378 1.84527 -91.6345
rradius 36.4822
rwrist 35.0538
rhand -30.2708 -12.5105
rfingers 7.12502
rthumb -3.57899 -42.4602
lclavicle 4.3012e-014 -1.07344e-014
lhumerus -43.7331 -3.89398 86.8736
lradius 15.5548
lwrist -26.8593
lhand -33.1513 6.66608
lfingers 7.12502
lthumb -6.36033 36.5506
rfemur 17.5111 -9.68598 10.6977
rtibia 41.9159
rfoot 0.6783 6.74141
rtoes -19.9594
lfemur -6.18146 20.1672 -14.7809
ltibia 28.6411
lfoot -17.6104 -22.4688
ltoes -1.37198
499
root 11.4899 16.8306 -19.7654 -195.67 -50.9985 -170.718
lowerback 8.18012 2.50177 4.16245
upperback 1.56874 3.63295 0.614966
thorax -2.73259 1.7459 -2.06598
lowerneck -16.707 -2.6093 -5.17049
upperneck 25.5418 -4.23884 5.16734
head 11.274 -2.00226 2.10451
rclavicle 5.42185e-014 -6.75868e-015
rhumerus -26.3805 1.55238 -91.5883
rradius 35.9821
rwrist 35.2096
rhand -29.841 -12.0795
rfingers 7.12502
rthumb -3.16394 -42.0357
lclavicle 5.42185e-014 -6.75868e-015
lhumerus -43.5148 -5.91822 88.7453
lradius 16.8912
lwrist -24.4176
lhand -33.6128 6.72836
lfingers 7.12502
lthumb -6.80576 36.599
rfemur 16.1035 -9.72018 10.0758
rtibia 45.3023
rfoot 0.293001 6.81486
rtoes -18.3436
lfemur -5.0616 20.2428 -15.0403
ltibia 27.9601
lfoot -17.6397 -23.1301
ltoes -1.07758
500
root 11.3683 16.8351 -19.8312 -195.527 -51.6065 -171.305
lowerback 8.57612 2.43122 3.56434
upperback 1.69292 3.49367 0.514461
thorax -2.86267 1.67772 -1.83972
lowerneck -16.7703 -2.51027 -5.14569
upperneck 25.2885 -4.03228 5.05992
head 11.1751 -1.90947 2.08996
rclavicle 1.13432e-014 -7.95139e-015
rhumerus -27.0244 1.50048 -91.643
rradius 35.6793
rwrist 35.2328
rhand -29.5355 -12.2022
rfingers 7.12502
rthumb -2.86883 -42.1627
lclavicle 1.13432e-014 -7.95139e-015
lhumerus -43.0258 -7.14522 89.9133
lradius 18.0997
lwrist -23.0246
lhand -34.0253 6.6637
lfingers 7.12502
lthumb -7.204 36.5211
rfemur 14.6562 -9.56859 9.42413
rtibia 48.4093
rfoot -0.703616 6.34452
rtoes -17.115
lfemur -3.8861 20.2262 -15.4242
ltibia 27.2861
lfoot -17.8455 -23.5483
ltoes -1.34973
501
root 11.243 16.839 -19.913 -195.955 -52.9619 -171.325
lowerback 8.72824 2.08631 2.91953
upperback 1.85683 2.97572 0.594311
thorax -2.84378 1.42468 -1.34677
lowerneck -16.6112 -2.33734 -5.28249
upperneck 25.0512 -3.69964 4.96777
head 11.035 -1.77973 2.12799
rclavicle -7.46436e-014 1.86858e-014
rhumerus -27.6515 1.40748 -91.4783
rradius 34.9956
rwrist 36.1399
rhand -29.2854 -12.0937
rfingers 7.12502
rthumb -2.62736 -42.0573
lclavicle -7.46436e-014 1.86858e-014
lhumerus -42.8773 -9.05837 91.5355
lradius 19.5618
lwrist -20.6807
lhand -34.3534 6.40274
lfingers 7.12502
lthumb -7.52069 36.249
rfemur 13.7706 -10.2558 8.94563
rtibia 51.1415
rfoot -2.33826 5.5128
rtoes -18.1531
lfemur -2.6083 19.8288 -15.4665
ltibia 26.6477
lfoot -17.9455 -24.5673
ltoes -1.03789
502
root 11.1211 16.845 -19.9824 -196.151 -53.9498 -171.46
lowerback 8.84162 1.90059 2.46431
upperback 2.0508 2.67988 0.592974
thorax -2.73959 1.28073 -1.06231
lowerneck -16.5025 -2.24873 -5.14234
upperneck 24.6497 -3.48092 4.63932
head 10.8421 -1.69729 2.01448
rclavicle -7.65942e-014 -3.57812e-015
rhumerus -28.1684 1.01537 -91.2705
rradius 34.3754
rwrist 36.7087
rhand -29.3228 -11.6385
rfingers 7.12502
rthumb -2.6635 -41.6017
lclavicle -7.65942e-014 -3.57812e-015
lhumerus -42.2998 -10.4453 92.6436
lradius 20.7024
lwrist -19.9045
lhand -35.0618 6.79511
lfingers 7.12502
lthumb -8.20437 36.6158
rfemur 12.5759 -10.4822 8.5615
rtibia 53.5866
rfoot -3.4835 4.94367
rtoes -17.046
lfemur -1.47816 19.113 -15.6859
ltibia 25.9554
lfoot -18.0511 -24.8233
ltoes -0.90812
503
root 10.9971 16.8534 -20.0472 -196.75 -54.942 -170.994
lowerback 8.9367 1.67471 2.39249
upperback 2.19405 2.36946 0.700772
thorax -2.66217 1.12585 -0.877906
lowerneck -16.502 -2.23033 -5.45596
upperneck 24.4349 -3.37308 4.76597
head 10.7645 -1.65516 2.128
rclavicle 4.29375e-014 -2.14687e-014
rhumerus -28.6775 0.774852 -91.0526
rradius 33.7307
rwrist 36.6086
rhand -29.4278 -11.1148
rfingers 7.12502
rthumb -2.76485 -41.0766
lclavicle 4.29375e-014 -2.14687e-014
lhumerus -41.4964 -11.1996 93.2571
lradius 21.4396
lwrist -19.8496
lhand -35.45 6.29751
lfingers 7.12502
lthumb -8.57908 36.1032
rfemur 11.3148 -11.0788 8.541
rtibia 55.6874
rfoot -4.38316 4.27527
rtoes -16.8678
lfemur -0.447604 18.2705 -15.6061
ltibia 25.2741
lfoot -18.1995 -25.0438
ltoes -0.845582
504
root 10.8763 16.8646 -20.1113 -197.056 -55.7565 -170.735
lowerback 8.89352 1.54041 2.19133
upperback 2.31471 2.16743 0.798603
thorax -2.53122 1.02671 -0.639024
lowerneck -16.5067 -2.22269 -5.61291
upperneck 24.2469 -3.25776 4.64002
head 10.6902 -1.62504 2.12449
rclavicle -3.97228e-014 1.98785e-014
rhumerus -29.2822 0.369447 -90.6489
rradius 33.2322
rwrist 37.8117
rhand -29.2624 -11.1232
rfingers 7.12502
rthumb -2.60514 -41.087
lclavicle -3.97228e-014 1.98785e-014
lhumerus -40.5614 -11.9956 93.8464
lradius 22.06
lwrist -19.8959
lhand -36.4638 5.94675
lfingers 7.12502
lthumb -9.55732 35.71
rfemur 9.88649 -11.2797 8.57837
rtibia 57.5028
rfoot -5.1276 3.53032
rtoes -15.3692
lfemur 0.429643 17.6841 -15.625
ltibia 24.6027
lfoot -18.2355 -25.3558
ltoes -0.730509
